<svg width="128" height="128" viewBox="0 0 128 128" fill="none" xmlns="http://www.w3.org/2000/svg">
<path d="M97.6953 15.6543C112.938 26.2157 122.9 43.8405 122.9 63.7002C122.9 95.9853 96.6854 122.2 64.4004 122.2V113.2C91.7149 113.2 113.9 91.0148 113.9 63.7002C113.9 47.5973 106.156 33.2144 94.124 24.1719L90.7998 32.0996L74.5 10.7002L101.2 7.2998L97.6953 15.6543ZM63.7002 14.7998C36.3855 14.7998 14.2002 36.9851 14.2002 64.2998C14.2002 80.4785 21.931 94.7818 33.8809 103.813L37.2002 95.9004L53.5 117.3L26.7998 120.7L30.3066 112.336C15.1609 101.786 5.2002 84.2532 5.2002 64.2998C5.2002 32.0145 31.4149 5.7998 63.7002 5.7998V14.7998ZM100 43.2002V84.7998L64 105.6L28 84.7998V43.2002L64 22.4004L100 43.2002ZM44 84H54V79H44V84ZM59 84H69V79H59V84ZM74 84H84V79H74V84ZM49 44C48.9839 44.0081 44 46.5207 44 59.2002V74.5H54C54 74.5 54 74.3999 54 59.2002C54 46.5207 49.0161 44.0081 49 44ZM64 44C63.9839 44.0081 59 46.5207 59 59.2002V74.5H69C69 74.5 69 74.3999 69 59.2002C69 46.5207 64.0161 44.0081 64 44ZM79 44C78.9839 44.0081 74 46.5207 74 59.2002V74.5H84C84 74.5 84 74.3999 84 59.2002C84 46.5207 79.0161 44.0081 79 44Z" fill="white"/>
</svg>
