<svg width="128" height="128" viewBox="0 0 128 128" fill="none" xmlns="http://www.w3.org/2000/svg">
<path d="M78.4004 19.7002C80.6093 19.7005 82.4004 21.4912 82.4004 23.7002C82.4004 25.9092 80.6093 27.6999 78.4004 27.7002C58.5095 27.7002 42.4004 43.8093 42.4004 63.7002C42.4004 83.5911 58.5095 99.7002 78.4004 99.7002C98.291 99.6999 114.4 83.5909 114.4 63.7002C114.4 53.2225 109.915 43.8241 102.749 37.2178L99.5 44.0996L85.9004 24.4004L109.7 22.5L106.299 29.7012C116.102 37.7831 122.4 49.973 122.4 63.7002C122.4 88.0092 102.709 107.7 78.4004 107.7C54.0913 107.7 34.4004 88.0093 34.4004 63.7002C34.4004 39.3911 54.0913 19.7002 78.4004 19.7002ZM43.7002 101.2C45.0808 101.2 46.2002 102.32 46.2002 103.7C46.2002 105.081 45.0808 106.2 43.7002 106.2H26C24.6193 106.2 23.5 105.081 23.5 103.7C23.5 102.319 24.6193 101.2 26 101.2H43.7002ZM29 81.2002C30.3807 81.2002 31.5 82.3195 31.5 83.7002C31.5 85.0809 30.3807 86.2002 29 86.2002H12C10.6193 86.2002 9.5 85.0809 9.5 83.7002C9.5 82.3195 10.6193 81.2002 12 81.2002H29ZM68.2002 84.2998H57.7998V79.1006H68.2002V84.2998ZM83.7998 84.2998H73.4004V79.1006H83.7998V84.2998ZM99.4004 84.2998H89V79.1006H99.4004V84.2998ZM63 42.7998C63.0326 42.8163 68.2001 45.4415 68.2002 58.5996V76.5H57.7998C57.7998 76.5 57.7998 74.3996 57.7998 58.5996C57.7999 45.3998 63 42.7998 63 42.7998ZM78.5996 42.7998C78.5996 42.7998 83.7998 45.3998 83.7998 58.5996V76.5H73.4004C73.4004 76.5 73.4004 74.3996 73.4004 58.5996C73.4004 45.4507 78.5598 42.8199 78.5996 42.7998ZM94.0996 42.7998C94.0996 42.7998 99.2998 45.3998 99.2998 58.5996V76.5H88.9004C88.9004 76.5 88.9004 74.3996 88.9004 58.5996C88.9004 45.4507 94.0598 42.8199 94.0996 42.7998ZM26 61.2002C27.3807 61.2002 28.5 62.3195 28.5 63.7002C28.5 65.0809 27.3807 66.2002 26 66.2002H8C6.61929 66.2002 5.5 65.0809 5.5 63.7002C5.5 62.3195 6.61929 61.2002 8 61.2002H26ZM29 41.2002C30.3807 41.2002 31.5 42.3195 31.5 43.7002C31.5 45.0809 30.3807 46.2002 29 46.2002H12C10.6193 46.2002 9.5 45.0809 9.5 43.7002C9.5 42.3195 10.6193 41.2002 12 41.2002H29ZM43.7002 21.2002C45.0808 21.2003 46.2002 22.3195 46.2002 23.7002C46.2002 25.0808 45.0808 26.2001 43.7002 26.2002H26C24.6193 26.2002 23.5 25.0809 23.5 23.7002C23.5 22.3195 24.6193 21.2002 26 21.2002H43.7002Z" fill="white"/>
</svg>
