<svg width="128" height="128" viewBox="0 0 128 128" fill="none" xmlns="http://www.w3.org/2000/svg">
<g clip-path="url(#clip0_13382_13202)">
<g clip-path="url(#clip1_13382_13202)">
<path d="M90.2042 31.0555C95.9829 30.1177 99.9072 24.6729 98.9694 18.8942C98.0315 13.1155 92.5867 9.19118 86.808 10.129C81.0293 11.0669 77.105 16.5117 78.0428 22.2904C78.9807 28.0691 84.4255 31.9934 90.2042 31.0555Z" fill="white"/>
<path d="M49.3474 24.6729C51.5878 19.2642 49.0194 13.0634 43.6107 10.823C38.202 8.58256 32.0011 11.151 29.7607 16.5597C27.5203 21.9684 30.0887 28.1692 35.4974 30.4096C40.9062 32.6501 47.107 30.0816 49.3474 24.6729Z" fill="white"/>
<path d="M107 47V41.7C107 38.8 104.6 36.5 101.7 36.5H75.3C72.4 36.5 70 38.8 70 41.7V47H107Z" fill="white"/>
<path d="M69.8999 69V78.6C69.8999 81.5 72.2999 83.9 75.1999 83.9H75.2999V118C75.2999 120.9 77.6999 123.3 80.5999 123.3C83.4999 123.3 85.8999 120.9 85.8999 118V80.9H91.1999V118C91.1999 120.9 93.5999 123.3 96.4999 123.3C99.3999 123.3 101.8 120.9 101.8 118V83.9H101.9C104.8 83.9 107.2 81.5 107.2 78.6V69H69.8999Z" fill="white"/>
<path d="M58.1 47V41.7C58.1 38.8 55.7 36.5 52.8 36.5H26.3C23.4 36.5 21 38.8 21 41.7V47H58.1Z" fill="white"/>
<path d="M20.8999 69V78.6C20.8999 81.5 23.2999 83.9 26.1999 83.9H26.2999V118C26.2999 120.9 28.6999 123.3 31.5999 123.3C34.4999 123.3 36.8999 120.9 36.8999 118V80.9H42.1999V118C42.1999 120.9 44.5999 123.3 47.4999 123.3C50.3999 123.3 52.7999 120.9 52.7999 118V83.9H52.8999C55.7999 83.9 58.1999 81.5 58.1999 78.6V69H20.8999Z" fill="white"/>
<path d="M122 58C122 58 118.3 52 107.3 52C94.1999 52 91.3999 52 91.3999 52V58V64C91.3999 64 94.0999 64 107.3 64C118.3 64 122 58 122 58Z" fill="white"/>
<path d="M85.8 57.3999H10" stroke="white" stroke-width="3" stroke-miterlimit="10" stroke-linecap="round"/>
</g>
</g>
<defs>
<clipPath id="clip0_13382_13202">
<rect width="128" height="128" fill="white"/>
</clipPath>
<clipPath id="clip1_13382_13202">
<rect width="128" height="128" fill="white"/>
</clipPath>
</defs>
</svg>
