<svg width="128" height="128" viewBox="0 0 128 128" fill="none" xmlns="http://www.w3.org/2000/svg">
<path d="M108.4 26.2158C108.085 27.895 107.797 29.427 107.533 30.8286L107.533 30.8314C107.033 33.4871 106.621 35.6742 106.284 37.5063L107.834 37.091C113.295 35.6275 116.052 34.1062 119.774 31.4651L119.848 31.4454L122 43.3141L121.852 43.3537C120.499 43.3247 117.675 44.0032 110.368 45.961C106.588 46.9741 101.828 48.2496 96.052 49.851L99.1431 56.3974L99.0372 56.4585C97.9861 56.7162 95.9442 57.8252 90.7034 60.851C87.8135 62.5195 84.1264 64.6482 79.6231 67.3064L83.3834 71.7441L83.3186 71.809C82.6071 72.1997 81.3431 73.3995 78.1338 76.6088C76.2536 78.489 73.8223 80.9203 70.8395 83.9672L70.7426 84C70.5932 83.4421 70.4255 82.9731 69.7481 81.0788C69.1354 79.3652 68.1056 76.4854 66.2951 71.3185C65.2783 68.4865 64.5155 66.3618 63.9436 64.7527C63.8178 64.8785 63.6844 64.9968 63.547 65.1186C63.4014 65.2478 63.2513 65.3809 63.1011 65.531C61.0912 67.5409 60.1815 68.8356 59.2032 70.9045L59.1383 70.9693L55.1045 65.4443L55.1693 65.3795C55.9456 64.9239 56.983 63.8866 61.0676 59.802L66.7731 54.0965L66.8373 54.1606C66.9883 54.6897 67.1488 55.1553 67.8243 57.1159C68.4232 58.8538 69.4268 61.7665 71.1875 66.9394C71.5275 67.9063 71.8373 68.7888 72.1207 69.5962C72.658 71.1269 73.1004 72.3875 73.4748 73.441L74.1556 72.7603C76.4881 70.4277 77.4754 68.834 78.5778 66.4595C78.5368 65.865 78.4689 65.0351 78.3609 63.714C78.1631 61.2957 77.8306 57.2311 77.282 49.9521C76.9497 45.9535 76.7005 42.9545 76.5193 40.6845C76.3137 40.8032 76.1011 40.9095 75.8822 41.019C75.65 41.1351 75.4108 41.2547 75.1656 41.3963C71.8834 43.2912 70.265 44.6446 68.2911 46.9716L68.1852 47.0327L64.8967 38.525L65.0025 38.4639C66.1595 38.1451 67.8535 37.167 74.5235 33.3161L83.8407 27.9368L83.9012 28.0416C83.9132 28.7751 83.9591 29.4302 84.1526 32.1881C84.3241 34.633 84.6116 38.7309 85.094 46.0006C85.1983 47.3633 85.2927 48.6067 85.379 49.7443C85.5428 51.9011 85.6776 53.6773 85.7962 55.1635L86.9079 54.5216C90.1988 52.6216 92.006 51.0854 93.8809 48.9758C94.0279 48.2349 94.2197 47.182 94.5398 45.4247C95.0834 42.4409 95.9969 37.4261 97.6895 28.4595L97.6899 28.4571C98.5821 23.5229 99.2514 19.822 99.7668 17.023C99.4803 17.0998 99.1892 17.1594 98.8895 17.2207C98.5716 17.2857 98.244 17.3528 97.9021 17.4444C93.3262 18.6705 90.9342 19.7811 87.798 21.952L87.6504 21.9916L86.4323 10.6554L86.5799 10.6158C88.08 10.6052 90.4418 9.97238 99.7413 7.48059L112.731 4L112.77 4.14606C112.547 5.03561 112.391 5.84138 111.732 9.23406C111.148 12.2416 110.17 17.2822 108.4 26.2158Z" fill="white"/>
<path fill-rule="evenodd" clip-rule="evenodd" d="M43.5737 90.4515C42.2653 91.2069 41.817 92.88 42.5724 94.1884C43.3278 95.4968 45.0009 95.9451 46.3093 95.1897L49.8175 93.1643C51.6544 94.9117 53.5985 96.5159 55.6322 97.9722C54.3901 99.9334 52.9605 102.582 52.1936 105.177C50.8627 109.682 50.5274 113.048 50.7536 114.831C50.9798 116.613 52.0636 118.398 54.5413 118.335C57.019 118.272 57.8702 116.471 57.9811 115.202C57.998 115.007 58.0141 114.751 58.0334 114.445C58.1401 112.751 58.3432 109.522 59.3201 106.754C59.9113 105.079 60.9335 103.282 61.8555 101.824C72.8265 107.637 85.6089 109.63 98 107.211C94.1294 111.657 89.4686 115.548 84.0779 118.661C57.9093 133.769 24.4477 124.803 9.33922 98.6344C-5.76922 72.4658 3.1968 39.0041 29.3654 23.8957C34.7561 20.7834 40.4563 18.6926 46.2419 17.5635C34.7565 30.7556 30.2277 48.8314 34.2251 65.9332L53.8399 84.5243L43.5737 90.4515ZM29.559 77.1272C28.8852 78.2013 27.6549 80.1626 24.8729 81.7689C22.3952 83.1993 20.4333 83.2769 18.9659 83.3348C18.3286 83.36 17.7846 83.3815 17.3322 83.5086C15.8378 83.9281 14.6448 85.2612 14.767 87.2967C14.8893 89.3323 16.5568 90.5431 18.4042 90.6406C20.2515 90.7381 23.7821 90.8221 28.5204 88.0865C32.7231 85.6601 34.3817 82.99 35.2886 81.5301L35.2891 81.5292C35.4044 81.3435 35.5076 81.1775 35.6023 81.034C36.4415 79.7624 36.7737 77.0705 34.4046 75.6821C32.0355 74.2938 30.5764 75.8436 30.0123 76.4648C29.8899 76.5997 29.7457 76.8294 29.559 77.1272Z" fill="white"/>
</svg>
