<svg width="128" height="128" viewBox="0 0 128 128" fill="none" xmlns="http://www.w3.org/2000/svg">
<path d="M87.6179 119.966C101.503 111.942 110.846 96.9343 110.846 79.7445C110.846 69.6136 106.626 57.5881 101.35 51.2577C98.185 56.533 90.7996 63.9185 82.8866 66.0286C83.9416 55.478 82.8866 28.5738 64.4229 8C58.2078 21.54 49.0041 30.3168 40.4271 38.4959C28.6197 49.7556 18 59.8827 18 79.7445C18 96.9583 27.3691 111.984 41.2861 120C38.8849 116.479 37.8955 111.845 37.8955 106.121C37.8955 88.1137 50.0528 75.5803 61.4397 63.8411C62.4431 62.8067 63.4404 61.7785 64.4229 60.7533C68.1156 67.6112 70.7532 75.5242 72.3358 84.0401C76.0286 83.4372 80.2488 81.8546 84.4691 79.7445C87.6343 85.0198 90.9503 96.6255 90.9503 106.121C90.9503 111.845 89.9769 116.46 87.6179 119.966Z" fill="white"/>
</svg>
