<svg width="128" height="128" viewBox="0 0 128 128" fill="none" xmlns="http://www.w3.org/2000/svg">
<path d="M73.1007 12.8761H54.8988C53.6475 12.8761 52.4188 11.875 52.18 10.6464L50.7921 3.72972C50.5418 2.5011 51.3609 1.5 52.6236 1.5H75.3759C76.6273 1.5 77.4464 2.5011 77.2075 3.72972L75.8196 10.6464C75.5693 11.875 74.3521 12.8761 73.1007 12.8761Z" fill="white"/>
<path d="M82.2015 69.0742L74.9208 61.7935L63.9997 72.7146L53.0786 61.7935L45.7979 69.0742L56.719 79.9953L45.7979 90.9164L53.0786 98.1971L63.9997 87.276L74.9208 98.1971L82.2015 90.9164L71.2804 79.9953L82.2015 69.0742Z" fill="white"/>
<path d="M95.578 36.7663H83.3395C80.1997 36.7663 77.6514 35.2419 77.6514 33.3534C77.6514 31.465 78.6753 29.9406 79.9266 29.9406C81.178 29.9406 82.2019 27.3923 82.2019 24.2525C82.2019 21.1127 79.6536 18.5645 76.5138 18.5645H51.4863C48.3464 18.5645 45.7982 21.1127 45.7982 24.2525C45.7982 27.3923 46.822 29.9406 48.0734 29.9406C49.3248 29.9406 50.3486 31.465 50.3486 33.3534C50.3486 35.2419 47.8004 36.7663 44.6606 36.7663H32.422C26.1652 36.7663 21.0459 41.8856 21.0459 48.1424V114.124C21.0459 120.381 26.1652 125.5 32.422 125.5H95.578C101.835 125.5 106.954 120.381 106.954 114.124V48.1424C106.954 41.8856 101.835 36.7663 95.578 36.7663ZM64 111.849C46.4125 111.849 32.1468 97.5832 32.1468 79.9956C32.1468 62.4081 46.4125 48.1424 64 48.1424C81.5875 48.1424 95.8532 62.4081 95.8532 79.9956C95.8532 97.5832 81.5875 111.849 64 111.849Z" fill="white"/>
</svg>
