<svg width="128" height="128" viewBox="0 0 128 128" fill="none" xmlns="http://www.w3.org/2000/svg">
<path d="M101 96.6667C101 95.8111 100.939 94.9556 100.877 94.0389C100.877 93.7333 100.816 93.4278 100.754 93.1222C98.1115 70.3889 71.5 38 71.5 38C71.5 38 44.8885 70.3889 42.2458 93.1222C42.1844 93.4278 42.1844 93.7333 42.1229 94.0389C42.0615 94.9556 42 95.8111 42 96.6667C42 97.4611 42.0615 98.1944 42.1229 98.8667C43.2292 114.022 55.951 126 71.5 126C87.049 126 99.7708 114.022 100.877 98.8667C100.939 98.1944 101 97.4611 101 96.6667Z" fill="white"/>
<path d="M49 43C49 42.5333 48.9667 42.0667 48.9333 41.5667C48.9333 41.4 48.9 41.2333 48.8667 41.0667C47.4333 28.6667 33 11 33 11C33 11 18.5667 28.6667 17.1333 41.0667C17.1 41.2333 17.1 41.4 17.0667 41.5667C17.0333 42.0667 17 42.5333 17 43C17 43.4333 17.0333 43.8333 17.0667 44.2C17.6667 52.4667 24.5667 59 33 59C41.4333 59 48.3333 52.4667 48.9333 44.2C48.9667 43.8333 49 43.4333 49 43Z" fill="white"/>
<path d="M104 26C104 25.65 103.975 25.3 103.95 24.925C103.95 24.8 103.925 24.675 103.9 24.55C102.825 15.25 92 2 92 2C92 2 81.175 15.25 80.1 24.55C80.075 24.675 80.075 24.8 80.05 24.925C80.025 25.3 80 25.65 80 26C80 26.325 80.025 26.625 80.05 26.9C80.5 33.1 85.675 38 92 38C98.325 38 103.5 33.1 103.95 26.9C103.975 26.625 104 26.325 104 26Z" fill="white"/>
</svg>
