<svg width="128" height="128" viewBox="0 0 128 128" fill="none" xmlns="http://www.w3.org/2000/svg">
<path fill-rule="evenodd" clip-rule="evenodd" d="M60 104.1C56.6 104.1 53.2 104 50 103.8V93.7605C42.2041 93.3734 35.227 92.674 29.618 91.7609C25.2226 91.0454 21.4557 90.1277 18.7157 89.0373C17.361 88.4982 16.0886 87.8517 15.102 87.0501C14.1678 86.2911 13 84.98 13 83.0999C13 81.2294 14.1495 79.9241 15.0911 79.1611C16.074 78.3648 17.3409 77.7281 18.6857 77.1971C21.4054 76.1231 25.1648 75.2065 29.5903 74.4435C31.223 74.162 32.7749 75.2574 33.0564 76.8902C33.3379 78.5229 32.2425 80.0748 30.6097 80.3563C26.3352 81.0933 23.0446 81.9267 20.8893 82.7777C20.5981 82.8927 20.3399 83.0034 20.1122 83.1084C20.3518 83.2208 20.6249 83.3394 20.9343 83.4625C23.0943 84.3221 26.3774 85.1544 30.582 85.8389C38.9818 87.2063 50.8139 88.0999 64 88.0999C68.7241 88.0999 73.2539 88.0108 77.5107 87.8299C77.6743 87.8203 77.8374 87.8104 78 87.8002V87.8087C85.4634 87.4775 92.0702 86.8608 97.3903 85.9435C101.665 85.2065 104.955 84.3731 107.111 83.5221C107.428 83.3967 107.706 83.2766 107.949 83.1632C107.707 83.0492 107.429 82.9285 107.111 82.8027C104.97 81.9574 101.692 81.1487 97.4234 80.4618C95.7876 80.1986 94.6749 78.6591 94.9381 77.0233C95.2013 75.3875 96.7408 74.2748 98.3766 74.538C102.808 75.2511 106.58 76.1424 109.314 77.2221C110.667 77.7564 111.945 78.4049 112.936 79.227C113.904 80.0305 115 81.3509 115 83.1999C115 85.0704 113.851 86.3757 112.909 87.1386C111.926 87.935 110.659 88.5717 109.314 89.1027C106.595 90.1767 102.835 91.0933 98.4097 91.8563C92.7202 92.8372 85.7562 93.478 78 93.8145V103.8C76.9929 103.832 75.966 103.873 74.9255 103.915L74.9234 103.915H74.9232H74.923C72.6582 104.006 70.3291 104.1 68 104.1V94.0784C66.6809 94.0928 65.3469 94.0999 64 94.0999C62.6534 94.0999 61.3193 94.0908 60 94.0729V104.1ZM65.236 68.0979C64.8255 68.0992 64.4135 68.0999 64 68.0999C50.8139 68.0999 38.9818 67.2063 30.582 65.8389C26.3774 65.1544 23.0943 64.3221 20.9343 63.4625C20.6249 63.3394 20.3518 63.2208 20.1122 63.1084C20.3399 63.0034 20.5981 62.8927 20.8893 62.7777C23.0446 61.9267 26.3352 61.0933 30.6097 60.3563C32.2425 60.0748 33.3379 58.5229 33.0564 56.8902C32.7749 55.2574 31.223 54.162 29.5903 54.4435C25.1648 55.2065 21.4054 56.1231 18.6857 57.1971C17.3409 57.7281 16.074 58.3648 15.0911 59.1611C14.1495 59.9241 13 61.2294 13 63.0999C13 64.98 14.1678 66.2911 15.102 67.0501C16.0886 67.8517 17.361 68.4981 18.7157 69.0373C21.4557 70.1277 25.2226 71.0454 29.618 71.7609C33.9982 72.474 39.2128 73.0567 45 73.4621V76.3002C45 79.1002 47.2 81.3002 50 81.3002V83.8002C53.2 84.0002 56.6 84.1002 60 84.1002V78.2002H68V84.1002C70.3291 84.1002 72.6582 84.0063 74.923 83.9151H74.9232H74.9234L74.9255 83.915C75.966 83.873 76.9929 83.8317 78 83.8002V81.3002C80.8 81.3002 83 79.1002 83 76.3002V73.5478C88.7593 73.1795 93.9722 72.6214 98.4097 71.8563C102.82 71.0959 106.581 70.2057 109.302 69.1451C110.648 68.6204 111.926 67.9842 112.919 67.1725C113.893 66.376 115 65.0591 115 63.1999C115 61.3509 113.904 60.0305 112.936 59.227C111.945 58.4049 110.667 57.7564 109.314 57.2221C106.58 56.1424 102.808 55.2511 98.3766 54.538C96.7408 54.2748 95.2013 55.3875 94.9381 57.0233C94.6749 58.6591 95.7876 60.1986 97.4234 60.4618C101.692 61.1487 104.97 61.9574 107.111 62.8027C107.449 62.9363 107.742 63.0643 107.993 63.1845C107.745 63.3009 107.456 63.4249 107.123 63.5547C104.969 64.3942 101.68 65.2039 97.3903 65.9435C93.2916 66.6502 88.4294 67.1784 83 67.5352V67.5002C77.4687 67.8752 71.41 68.0744 65.236 68.0979ZM55 121.2C52.2 121.2 50 119 50 116.2V113.858C42.2185 113.471 35.2167 112.772 29.618 111.861C25.21 111.143 21.4369 110.198 18.6913 109.077C17.3333 108.523 16.0641 107.861 15.082 107.049C14.1557 106.283 13 104.969 13 103.1C13 101.229 14.1495 99.9241 15.0911 99.1611C16.074 98.3648 17.3409 97.7281 18.6857 97.1971C21.4054 96.1231 25.1648 95.2065 29.5903 94.4435C31.223 94.162 32.7749 95.2574 33.0564 96.8902C33.3379 98.5229 32.2425 100.075 30.6097 100.356C26.3352 101.093 23.0446 101.927 20.8893 102.778C20.5803 102.9 20.3086 103.017 20.071 103.127C20.3264 103.252 20.6211 103.385 20.9587 103.522C23.1131 104.402 26.39 105.256 30.582 105.939C35.8574 106.798 42.5265 107.47 50 107.851V107.8C51.0071 107.832 52.034 107.873 53.0745 107.915L53.0766 107.915H53.0768H53.077C55.3418 108.006 57.6709 108.1 60 108.1V108.172C61.3194 108.19 62.6536 108.2 64 108.2C65.3478 108.2 66.6818 108.191 68 108.175V108C71.4 108 74.8 107.9 78 107.7V107.875C85.4433 107.515 92.0756 106.86 97.3903 105.944C101.665 105.207 104.955 104.373 107.111 103.522C107.428 103.397 107.706 103.277 107.949 103.163C107.707 103.049 107.429 102.928 107.111 102.803C104.97 101.957 101.692 101.149 97.4234 100.462C95.7876 100.199 94.6749 98.6591 94.9381 97.0233C95.2013 95.3875 96.7408 94.2748 98.3766 94.538C102.808 95.2511 106.58 96.1424 109.314 97.2221C110.667 97.7564 111.945 98.4049 112.936 99.227C113.904 100.031 115 101.351 115 103.2C115 105.07 113.851 106.376 112.909 107.139C111.926 107.935 110.659 108.572 109.314 109.103C106.595 110.177 102.835 111.093 98.4097 111.856C92.7361 112.834 85.7491 113.516 78 113.882V116.2C78 119 75.8 121.2 73 121.2C70.2 121.2 68 119 68 116.2V114.175C66.6795 114.192 65.3454 114.2 64 114.2C62.6552 114.2 61.321 114.191 60 114.173V116.2C60 119 57.8 121.2 55 121.2ZM75 17.2002C75 23.3002 70.1 28.2002 64 28.2002C57.9 28.2002 53 23.3002 53 17.2002C53 11.1002 57.9 6.2002 64 6.2002C70.1 6.2002 75 11.1002 75 17.2002ZM50 33.2002H78C80.8 33.2002 83 35.5002 83 38.2002V63.4002C77.1 63.9002 70.7 64.1002 64 64.1002C57.3 64.1002 50.9 63.8002 45 63.4002V38.2002C45 35.4002 47.2 33.2002 50 33.2002Z" fill="white"/>
</svg>
