<svg width="128" height="128" viewBox="0 0 128 128" fill="none" xmlns="http://www.w3.org/2000/svg">
<path d="M69.2997 105.058C63.9998 105.058 58.8635 104.142 54.0216 102.441L53.4 103.063C49.6051 106.858 44.5342 108.951 39.1689 108.951C33.8036 108.951 28.7327 106.858 24.9377 103.063C21.1428 99.2677 19.049 94.1969 19.049 88.8315C19.049 83.4662 21.1428 78.3954 24.9377 74.6004L44.4688 55.0694C48.2637 51.2744 53.3346 49.1806 58.6999 49.1806C64.0652 49.1806 69.1361 51.2744 72.9311 55.0694C75.1557 57.294 76.726 59.9767 77.7075 62.8883L88.9288 51.667C87.4239 49.1152 85.7227 46.6615 83.5308 44.4696C76.6606 37.5994 67.6639 34.1643 58.6999 34.1643C49.7032 34.1643 40.7065 37.5994 33.869 44.4696L14.338 64.0006C0.630266 77.7083 0.597551 99.9547 14.338 113.695C21.2082 120.565 30.2049 124 39.2016 124C48.1983 124 57.195 120.565 64.0325 113.728L72.8002 104.96C71.6225 104.96 70.4447 105.058 69.2997 105.058Z" fill="white"/>
<path d="M113.662 14.3058C106.824 7.43559 97.8277 4.00049 88.831 4.00049C79.8343 4.00049 70.8376 7.43559 64.0001 14.3058L55.2324 23.0735C56.3775 22.9754 57.5225 22.9099 58.7003 22.9099C64.0001 22.9099 69.1364 23.826 73.9783 25.5271L74.5999 24.9056C78.3949 21.1106 83.4657 19.0168 88.831 19.0168C94.1964 19.0168 99.2672 21.1106 103.062 24.9056C110.914 32.7572 110.914 45.5489 103.062 53.4006L83.5312 72.9316C79.7362 76.7266 74.6653 78.8204 69.3 78.8204C63.9347 78.8204 58.8638 76.7266 55.0689 72.9316C52.8442 70.707 51.2739 68.0243 50.2924 65.1127L39.0711 76.334C40.576 78.8858 42.2772 81.3394 44.4691 83.5314C51.3393 90.4016 60.336 93.8367 69.3327 93.8367C78.3294 93.8367 87.3261 90.4016 94.1636 83.5641L113.695 64.0331C127.402 50.2599 127.402 28.0135 113.662 14.3058Z" fill="white"/>
</svg>
