<svg width="128" height="128" viewBox="0 0 128 128" fill="none" xmlns="http://www.w3.org/2000/svg">
<path d="M112.999 57.81L97.9278 53.7579L119.61 3L75.2502 47.7153L90.3923 51.7674L68.71 102.525L112.999 57.81Z" fill="white"/>
<path d="M15.0371 57.81L30.1081 53.7579L8.42578 3L52.7857 47.7153L37.6436 51.7674L59.3259 102.525L15.0371 57.81Z" fill="white"/>
<path d="M114.989 86.0335C118.472 87.4553 121.884 89.2325 124.657 92.1472C126.008 93.569 127.145 95.3462 127.714 97.4789C128.211 99.5405 128.069 101.886 127.216 103.877C125.51 107.929 122.24 110.63 119.041 112.905C115.771 115.18 112.216 116.815 108.662 118.308C94.1595 123.995 78.7331 125.701 63.5199 125.773C48.2357 125.63 32.8092 123.853 18.3781 117.882C14.8236 116.318 11.3402 114.54 8.07008 112.266C4.94214 109.848 1.74312 106.934 0.392414 102.668C-0.958287 98.2609 1.38767 93.7822 4.23125 91.2941C7.14592 88.5927 10.5582 86.8865 14.1127 85.6069C10.9137 87.5974 7.85682 89.8723 5.58195 92.5737C3.30709 95.3462 2.24074 98.8296 3.66253 101.673C6.29285 107.503 13.6862 110.702 20.2975 112.976C34.0889 117.313 48.8755 118.877 63.5199 118.877C78.1644 118.877 92.951 117.455 106.813 113.332C113.496 111.199 120.818 108.142 124.088 102.597C125.723 99.8959 125.439 96.3415 123.235 93.4979C121.102 90.441 118.117 88.0951 114.989 86.0335Z" fill="white" fill-opacity="0.5"/>
</svg>
