<svg width="128" height="128" viewBox="0 0 128 128" fill="none" xmlns="http://www.w3.org/2000/svg">
<path d="M93.1743 37.4784V31.8973C93.1743 31.3452 92.7276 30.9336 92.1755 31.0089C79.633 32.7053 69.7054 42.6329 68.009 55.1754C67.9337 55.7225 68.3402 56.1742 68.8974 56.1742H74.4785C75.0306 56.1742 75.5425 55.7275 75.6429 55.1855C77.2038 46.8037 83.8038 40.2037 92.1856 38.6428C92.7326 38.5424 93.1743 38.0355 93.1743 37.4784Z" fill="#FF9900"/>
<path d="M117.521 56.1743H123.103C123.655 56.1743 124.066 55.7276 123.991 55.1755C122.295 42.633 112.367 32.7054 99.8245 31.009C99.2774 30.9337 98.8257 31.3402 98.8257 31.8974V37.4785C98.8257 38.0306 99.2724 38.5425 99.8144 38.6429C108.196 40.2038 114.796 46.8038 116.357 55.1856C116.457 55.7326 116.964 56.1743 117.521 56.1743Z" fill="#FF9900"/>
<path d="M98.8257 86.1026V80.5215C98.8257 79.9644 99.2674 79.4575 99.8144 79.3571C108.196 77.7962 114.796 71.1962 116.357 62.8144C116.457 62.2724 116.969 61.8257 117.521 61.8257H123.103C123.66 61.8257 124.066 62.2774 123.991 62.8245C122.295 75.367 112.367 85.2946 99.8245 86.991C99.2724 87.0663 98.8257 86.6547 98.8257 86.1026Z" fill="#FF9900"/>
<path d="M74.4784 61.8257H68.8973C68.3452 61.8257 67.9336 62.2724 68.0089 62.8245C69.7053 75.367 79.6329 85.2946 92.1754 86.991C92.7225 87.0663 93.1742 86.6597 93.1742 86.1026V80.5215C93.1742 79.9694 92.7275 79.4575 92.1855 79.3571C83.8037 77.7962 77.2037 71.1962 75.6428 62.8144C75.5424 62.2674 75.0355 61.8257 74.4784 61.8257Z" fill="#FF9900"/>
<path fill-rule="evenodd" clip-rule="evenodd" d="M80.9331 59.0002C80.9331 50.6787 87.6787 43.9331 96.0002 43.9331C104.322 43.9331 111.067 50.6787 111.067 59.0002C111.067 67.3217 104.322 74.0672 96.0002 74.0672C87.6787 74.0672 80.9331 67.3217 80.9331 59.0002ZM88.4666 59.0002C88.4666 63.1609 91.8394 66.5337 96.0002 66.5337C100.161 66.5337 103.534 63.1609 103.534 59.0002C103.534 54.8394 100.161 51.4666 96.0002 51.4666C91.8394 51.4666 88.4666 54.8394 88.4666 59.0002Z" fill="#FF9900"/>
<path d="M59 57C60.1046 57 61 57.8954 61 59C61 60.1046 60.1046 61 59 61H7C5.89543 61 5 60.1046 5 59C5 57.8954 5.89543 57 7 57H59Z" fill="#FF9900"/>
<path d="M53.7875 20.0238C48.6533 13.3022 40.8042 9 32.0027 9C16.5345 9 4 22.2789 4 38.6558C4 38.7707 4.00052 38.8854 4.00155 39H68.5016C74.6837 30.5147 84.6979 25 96 25C103.041 25 109.582 27.1403 115.009 30.8059C111.759 18.2377 100.899 9 87.9973 9C79.1958 9 71.3467 13.3022 66.2125 20.0238C65.7565 20.6214 65.336 21.1783 64.9462 21.6946C62.4734 24.9699 61.2367 26.6078 59.9993 26.6084C58.7614 26.609 57.5227 24.9711 55.0449 21.6946C54.6545 21.1783 54.2333 20.6214 53.7766 20.0238H53.7875Z" fill="#FF410D"/>
<path d="M68.5016 79C72.4134 84.3691 77.8594 88.5489 84.1952 90.8947C76.5121 98.9486 68.7576 107.34 62.6218 116.742C61.1111 119.051 58.8889 119.051 57.3782 116.742C50.5788 106.325 41.7966 97.1509 33.3264 88.303C30.3317 85.1748 27.3761 82.0873 24.5608 79H68.5016Z" fill="#FF410D"/>
</svg>
