<svg width="116" height="128" viewBox="0 0 116 128" fill="none" xmlns="http://www.w3.org/2000/svg">
<g clip-path="url(#clip0_14103_1265)">
<path d="M114.211 77.2765C109.364 54.5437 113.597 54.5437 112.095 41.7096C108.681 12.0136 83.9007 0.0668945 57.4815 0.0668945C31.0623 0.0668945 6.28148 12.0136 2.86815 41.7096C1.36628 54.5437 5.59882 54.5437 0.751883 77.2765C-4.02678 99.5997 13.1764 97.5517 17.4772 101.648C21.778 105.744 24.5087 118.578 30.1748 123.356C32.3594 125.2 44.1012 128.067 57.4132 128.067C70.7252 128.067 82.4671 125.268 84.6516 123.356C90.3177 118.646 92.9802 105.744 97.3492 101.648C101.787 97.4834 118.99 99.5997 114.211 77.2765ZM29.9018 86.1512C18.7743 86.1512 9.76308 82.3965 9.76308 71.269C9.76308 60.1416 17.9551 49.9698 32.4959 54.6802C47.0367 59.3906 50.0404 65.4664 50.0404 76.5256C50.0404 87.653 41.0292 86.1512 29.9018 86.1512ZM57.4132 113.663C52.0201 113.663 47.5828 122.128 47.6511 113.663C47.6511 105.198 52.1567 88.6088 57.5498 88.6088C62.9428 88.6088 67.2436 105.198 67.2436 113.663C67.1753 122.059 62.8063 113.663 57.4132 113.663ZM85.1295 86.1512C74.002 86.1512 64.9908 87.653 64.9908 76.5256C64.9908 65.3981 67.9945 59.3906 82.5353 54.6802C97.0762 49.9698 105.268 60.1416 105.268 71.269C105.268 82.3965 96.257 86.1512 85.1295 86.1512Z" fill="white"/>
</g>
<defs>
<clipPath id="clip0_14103_1265">
<rect width="115.029" height="128" rx="16" fill="white"/>
</clipPath>
</defs>
</svg>
