<svg width="128" height="128" viewBox="0 0 128 128" fill="none" xmlns="http://www.w3.org/2000/svg">
<path fill-rule="evenodd" clip-rule="evenodd" d="M96.5147 80.5558L65.4441 49.4852C64.6465 48.6876 63.3534 48.6876 62.5558 49.4852L31.4852 80.5558C30.6876 81.3534 30.6876 82.6465 31.4852 83.4441L62.5558 114.515C63.3534 115.312 64.6465 115.312 65.4441 114.515L96.5147 83.4441C97.3122 82.6465 97.3122 81.3534 96.5147 80.5558ZM55.558 67.9305L72.4415 67.9305L72.4415 82.0001L83.6971 82.0001L63.9997 101.697L44.3023 82.0001L55.558 82.0001L55.558 67.9305Z" fill="white"/>
<path fill-rule="evenodd" clip-rule="evenodd" d="M56.2497 41.2103C60.5301 36.9299 67.47 36.9299 71.7504 41.2103L104.79 74.2497C109.07 78.5301 109.07 85.47 104.79 89.7504L71.7503 122.79C67.4699 127.07 60.53 127.07 56.2496 122.79L23.2103 89.7503C18.9299 85.4699 18.9299 78.53 23.2103 74.2496L56.2497 41.2103ZM68.4287 46.5006C65.9828 44.0547 62.0171 44.0547 59.5712 46.5006L28.5006 77.5712C26.0547 80.0171 26.0547 83.9828 28.5006 86.4287L59.5712 117.499C62.0171 119.945 65.9828 119.945 68.4287 117.499L99.4993 86.4287C101.945 83.9828 101.945 80.0171 99.4993 77.5712L68.4287 46.5006Z" fill="white"/>
<path d="M125.891 31.8906C118.921 31.4559 112.076 28.576 106.75 23.25C101.424 17.924 98.5441 11.0788 98.1094 4.10938L98 4L97.8906 4.10938C97.4563 11.0788 94.5758 17.9242 89.25 23.25C83.9242 28.5758 77.0788 31.4563 70.1094 31.8906L70 32L70.1094 32.1094C77.0788 32.5441 83.924 35.424 89.25 40.75C94.576 46.076 97.4559 52.9212 97.8906 59.8906L98 60L98.1094 59.8906C98.5437 52.9212 101.424 46.0758 106.75 40.75C112.076 35.4242 118.921 32.5437 125.891 32.1094L126 32L125.891 31.8906Z" fill="white"/>
<path d="M50.9141 26.9141C45.4381 26.5725 40.0598 24.3098 35.875 20.125C31.6902 15.9402 29.4275 10.5619 29.0859 5.08594L29 5L28.9141 5.08594C28.5728 10.5619 26.3096 15.9404 22.125 20.125C17.9404 24.3096 12.5619 26.5728 7.08594 26.9141L7 27L7.08594 27.0859C12.5619 27.4275 17.9402 29.6902 22.125 33.875C26.3098 38.0598 28.5725 43.4381 28.9141 48.9141L29 49L29.0859 48.9141C29.4272 43.4381 31.6904 38.0596 35.875 33.875C40.0596 29.6904 45.4381 27.4272 50.9141 27.0859L51 27L50.9141 26.9141Z" fill="white"/>
<path d="M79.9453 16.9453C76.4606 16.728 73.038 15.288 70.375 12.625C67.712 9.96198 66.272 6.53941 66.0547 3.05469L66 3L65.9453 3.05469C65.7282 6.53941 64.2879 9.96208 61.625 12.625C58.9621 15.2879 55.5394 16.7282 52.0547 16.9453L52 17L52.0547 17.0547C55.5394 17.272 58.962 18.712 61.625 21.375C64.288 24.038 65.728 27.4606 65.9453 30.9453L66 31L66.0547 30.9453C66.2718 27.4606 67.7121 24.0379 70.375 21.375C73.0379 18.7121 76.4606 17.2718 79.9453 17.0547L80 17L79.9453 16.9453Z" fill="white"/>
<path d="M27.9531 57.9531C24.9662 57.7668 22.0326 56.5326 19.75 54.25C17.4674 51.9674 16.2332 49.0338 16.0469 46.0469L16 46L15.9531 46.0469C15.767 49.0338 14.5325 51.9675 12.25 54.25C9.9675 56.5325 7.03378 57.767 4.04688 57.9531L4 58L4.04688 58.0469C7.03378 58.2332 9.96741 59.4674 12.25 61.75C14.5326 64.0326 15.7668 66.9662 15.9531 69.9531L16 70L16.0469 69.9531C16.233 66.9662 17.4675 64.0325 19.75 61.75C22.0325 59.4675 24.9662 58.233 27.9531 58.0469L28 58L27.9531 57.9531Z" fill="white"/>
</svg>
