<svg width="128" height="128" viewBox="0 0 128 128" fill="none" xmlns="http://www.w3.org/2000/svg">
<path fill-rule="evenodd" clip-rule="evenodd" d="M110.22 61.9469L66.0532 17.7799C64.9194 16.6461 63.0812 16.6461 61.9474 17.7799L17.7804 61.9469C16.6466 63.0807 16.6466 64.9189 17.7804 66.0527L61.9474 110.22C63.0812 111.353 64.9194 111.353 66.0532 110.22L110.22 66.0527C111.354 64.9189 111.354 63.0807 110.22 61.9469ZM52 44H76V64H92L64 92L36 64H52V44Z" fill="white"/>
<path fill-rule="evenodd" clip-rule="evenodd" d="M52.9832 6.01707C59.0678 -0.0675473 68.933 -0.0675364 75.0176 6.01708L121.983 52.9827C128.068 59.0674 128.068 68.9325 121.983 75.0171L75.0176 121.983C68.9329 128.067 59.0678 128.067 52.9832 121.983L6.01756 75.0171C-0.067059 68.9325 -0.0670481 59.0673 6.01757 52.9827L52.9832 6.01707ZM70.2958 13.5373C66.8189 10.0604 61.1817 10.0604 57.7048 13.5373L13.5378 57.7043C10.0608 61.1812 10.0608 66.8184 13.5378 70.2953L57.7048 114.462C61.1817 117.939 66.8189 117.939 70.2958 114.462L114.463 70.2953C117.94 66.8184 117.94 61.1812 114.463 57.7043L70.2958 13.5373Z" fill="white"/>
</svg>
