<svg width="128" height="128" viewBox="0 0 128 128" fill="none" xmlns="http://www.w3.org/2000/svg">
<path d="M66.5897 15.2C70.0997 11.74 75.5097 8 84.1597 8H84.1797C95.3197 8 104.34 16.53 104.34 27.05C104.34 39.2586 94.1412 48.761 83.2256 58.9316C81.2748 60.7493 79.3011 62.5883 77.3586 64.4679C76.791 63.7079 75.9072 62.875 74.6758 62.4263C74.6927 62.18 74.697 61.9381 74.6901 61.7028C74.6567 60.5708 74.3432 59.0673 73.3104 57.731C73.1081 57.4631 72.8958 57.2012 72.6739 56.9468C74.2174 55.4761 75.7692 54.0316 77.3097 52.6C82.2297 48.02 86.8097 43.75 90.1597 39.57C91.1597 38.33 90.5997 37.26 89.0097 37.26H38.9897C37.3997 37.26 36.8397 38.33 37.8397 39.57C41.1997 43.75 45.7697 48.02 50.6897 52.6L50.7765 52.6809C52.552 54.3353 54.3465 56.0073 56.1266 57.7172C55.7777 58.1914 55.4564 58.6872 55.1635 59.1974L51.6148 65.3998C49.3704 63.1995 47.0722 61.0584 44.805 58.9461C33.8826 48.77 23.6797 39.2644 23.6797 27.05C23.6797 16.53 32.6997 8 43.8397 8C52.4897 8 57.8997 11.74 61.4097 15.2C62.9197 16.68 65.0797 16.68 66.5897 15.2Z" fill="#00FF99"/>
<path d="M69.426 63.0017C69.801 62.3406 69.7898 61.3347 69.3419 60.7725C66.4026 56.8499 62.1722 57.0321 59.5002 61.6867L53.6942 71.8342L61.698 76.4817L69.426 63.0017Z" fill="#FF9900"/>
<path d="M70.5471 105.95C69.5518 105.2 69.3429 103.739 70.1347 102.709L82.6812 86.2371C83.1106 85.671 83.1737 84.6851 82.8201 84.0681L79.991 79.1322C79.6373 78.5153 79.0029 78.5045 78.5735 79.0706L67.8466 94.9908C67.1763 96.0134 65.8278 96.2914 64.7927 95.6911C64.7184 95.671 64.6912 95.6235 64.664 95.5761C63.6215 94.8534 63.3655 93.4203 64.0829 92.3703L76.0908 74.6294C76.493 74.0159 76.5561 73.0299 76.1752 72.3655L73.4277 67.572C73.0741 66.955 72.4868 66.9169 72.1118 67.5779L64.4907 80.806L59.8767 88.8681C59.4546 89.5565 58.7751 90.015 57.9721 90.039L55.1718 90.0855L61.3469 100.859C61.9726 101.951 61.5942 103.373 60.5105 104.003C59.7566 104.442 58.9265 104.418 58.243 103.993C57.8913 103.818 57.6067 103.54 57.3891 103.161L49.9626 90.204L44.632 90.3299C44.1934 90.3319 43.7746 90.259 43.4429 90.009C42.7866 89.6313 42.3042 88.8993 42.2804 88.0905C42.2547 86.8399 43.2621 85.7478 44.5037 85.7218L55.212 85.4427C55.9406 85.3986 56.7887 84.9054 57.1637 84.2444L58.7108 81.5728C59.0858 80.9118 58.8463 80.1651 58.2371 79.76L45.2062 72.1509C43.968 71.4156 42.3369 71.8579 41.6068 73.1051L34.5492 85.5625C33.8191 86.8097 33.8216 88.8966 34.5289 90.1305L40.6496 100.809C41.0032 101.426 41.0144 102.432 40.6394 103.093L37.5327 108.633C36.8026 109.881 37.2418 111.524 38.48 112.259L61.382 125.581C62.6202 126.317 64.4815 126.057 65.5162 125.012L80.2564 110.175C84.8316 105.553 86.8031 98.1414 85.7007 91.5052C85.6099 90.7987 85.0897 90.6583 84.6132 91.2518L73.7642 105.534C73.0395 106.462 71.7853 106.685 70.7774 106.132C70.7031 106.112 70.6015 106.045 70.5471 105.95Z" fill="#FF9900"/>
</svg>
