<svg width="128" height="128" viewBox="0 0 128 128" fill="none" xmlns="http://www.w3.org/2000/svg">
<path d="M25.763 57.9446V28.2142C25.763 26.2364 24.1532 24.6344 22.1658 24.6344H19.4679C17.4804 24.6344 15.8707 26.2364 15.8707 28.2142L15.8707 57.9446H25.763Z" fill="white"/>
<path d="M74.3249 68.8183V38.0587C74.3249 36.0809 72.7152 34.4789 70.7277 34.4789H68.0298C66.0424 34.4789 64.4327 36.0809 64.4327 38.0587V64.9074C64.4327 66.6346 63.0208 68.0397 61.2851 68.0397C59.5495 68.0397 58.1376 66.6346 58.1376 64.9074V26.4243C58.1376 24.4465 56.5279 22.8445 54.5404 22.8445H51.8425C49.8551 22.8445 48.2453 24.4465 48.2453 26.4243V63.1175C48.2453 64.8447 46.8335 66.2498 45.0978 66.2498C43.3622 66.2498 41.9503 64.8447 41.9503 63.1175V16.5798C41.9503 14.602 40.3405 13 38.3531 13L35.6552 13C33.6678 13 32.058 14.602 32.058 16.5798V57.9446H33.2361C34.9717 57.9446 36.3836 59.3497 36.3836 61.077V73.7316C36.3836 74.8235 35.8171 75.8348 34.8728 76.4075L31.5724 78.4122L46.141 86.7801C47.6248 87.6303 48.2903 89.5007 47.4989 91.0043C46.9324 92.0872 45.8352 92.7047 44.7021 92.7047C44.1715 92.7047 43.623 92.5704 43.1284 92.284L25.4572 82.1263L19.2341 85.9119C18.7215 86.2252 18.1549 86.3684 17.5974 86.3684C16.5362 86.3684 15.502 85.8314 14.9085 84.8649C14.0002 83.3882 14.4678 81.464 15.9516 80.5601L28.3619 73.0157C29.4321 72.3623 30.0886 71.2078 30.0886 69.9639L30.0886 65.9992C30.0886 65.0148 29.2792 64.2093 28.29 64.2093L7.59718 64.2093C5.60974 64.2093 4 65.8113 4 67.7891L4 87.1559C4 89.3933 5.19606 91.4607 7.14753 92.5794L23.2449 101.833V112.277C23.2449 114.255 24.8547 115.857 26.8421 115.857L63.3895 115.857C65.4219 115.857 67.2025 114.497 67.7331 112.537L75.1793 84.8738C76.5642 79.7278 76.1415 74.0538 74.3249 68.8183Z" fill="white"/>
<path d="M114.401 88.9584C114.274 86.873 114.073 84.7898 113.798 82.7125C112.256 71.0386 108.422 59.7817 102.514 49.5845C96.6063 39.3874 88.7409 30.4497 79.3671 23.2817C74.061 19.2243 68.3305 15.7789 62.2861 13C66.5889 16.3794 70.5926 20.1588 74.2386 24.3019C85.9717 37.6347 93.4739 54.1354 95.7966 71.7172C96.5552 77.4594 96.7502 83.2327 96.3946 88.9584H85.9756L104.988 115.857L124 88.9584H114.401Z" fill="white"/>
</svg>
