<svg width="128" height="128" viewBox="0 0 128 128" fill="none" xmlns="http://www.w3.org/2000/svg">
<path d="M66.2335 39.4669L98.0161 21.1172C100.13 19.8965 100.854 17.1952 99.6335 15.0808L97.9764 12.2106C96.7557 10.0962 94.0544 9.37242 91.94 10.5932L60.1574 28.9429L66.2335 39.4669Z" fill="white"/>
<path d="M84.4371 97.8417L117.32 78.8568C119.434 77.636 120.158 74.9347 118.937 72.8204L117.28 69.9501C116.06 67.8358 113.358 67.112 111.244 68.3327L82.542 84.9038C80.6955 85.9698 78.3262 85.335 77.2601 83.4885C76.194 81.642 76.8289 79.2727 78.6754 78.2067L119.815 54.4548C121.929 53.2341 122.653 50.5328 121.432 48.4184L119.775 45.5482C118.554 43.4338 115.853 42.71 113.739 43.9307L74.5128 66.5779C72.6663 67.644 70.297 67.0091 69.2309 65.1626C68.1649 63.3161 68.7997 60.9468 70.6462 59.8808L120.396 31.1576C122.511 29.9368 123.234 27.2355 122.014 25.1212L120.357 22.251C119.136 20.1366 116.435 19.4128 114.32 20.6335L70.1001 46.164L70.8236 47.4173C71.8897 49.2638 71.2549 51.6331 69.4084 52.6992L55.8802 60.5097C54.713 61.1836 53.2839 61.205 52.0916 60.554L47.9213 58.2801L47.9243 78.9438C47.9268 81.0471 46.336 82.9096 44.2426 82.9956C42.7369 83.0612 41.4029 82.2751 40.7069 81.0697C40.381 80.5052 40.1876 79.8387 40.1899 79.1358L40.1948 54.0666L32.3254 49.7826C31.6757 49.4306 31.1746 48.9162 30.8322 48.323C30.1804 47.1941 30.1192 45.7624 30.7879 44.5344C31.8086 42.6567 34.1528 41.9666 36.0305 42.9873L51.7185 51.5337C53.0742 52.269 54.7116 52.2549 56.0415 51.4871L60.2798 49.0401C61.3322 48.4325 61.6961 47.0743 61.0885 46.0219L48.3785 24.0075C47.1578 21.8931 44.4565 21.1693 42.3421 22.3901L21.6384 34.3433C19.2466 35.7243 17.7712 38.2727 17.7739 41.0392L17.7687 63.8762L6.60367 70.3224C4.4893 71.5431 3.76549 74.2444 4.98622 76.3588L27.4345 115.24C28.6829 117.403 31.2308 118.457 33.6519 117.812L67.7981 108.66C74.15 106.957 79.956 103.006 84.4371 97.8417Z" fill="white"/>
</svg>
