<svg width="128" height="128" viewBox="0 0 128 128" fill="none" xmlns="http://www.w3.org/2000/svg">
<path d="M33.9004 120C43.0131 120 50.4004 117.672 50.4004 114.8C50.4004 111.928 43.0131 109.6 33.9004 109.6C24.7877 109.6 17.4004 111.928 17.4004 114.8C17.4004 117.672 24.7877 120 33.9004 120Z" fill="white"/>
<path d="M42.3002 59.8002L52.9002 35.8002L24.7002 28.2002L24.0002 44.4002L11.2002 78.2002L25.0002 82.0002L28.1002 77.6002L38.9002 85.7002L51.6002 84.5002L63.7002 80.4002L65.0002 75.5002L54.2002 72.3002L42.3002 59.8002Z" fill="white"/>
<path d="M31.4004 103.3V92C31.4004 90.6193 32.5197 89.5 33.9004 89.5C35.2811 89.5 36.4004 90.6193 36.4004 92V103.3C36.4004 104.681 35.2811 105.8 33.9004 105.8C32.5197 105.8 31.4004 104.681 31.4004 103.3Z" fill="white"/>
<path d="M85.7002 120C94.8129 120 102.2 117.672 102.2 114.8C102.2 111.928 94.8129 109.6 85.7002 109.6C76.5875 109.6 69.2002 111.928 69.2002 114.8C69.2002 117.672 76.5875 120 85.7002 120Z" fill="white"/>
<path d="M94.1 39.5L104.8 15.6L76.6 8L75.8 24.1L63 58L76.9 61.8L79.9 57.4L90.7 65.5L103.5 64.3L115.5 60.2L116.8 55.3L106 52.1L94.1 39.5Z" fill="white"/>
<path d="M89.2998 103.3V71.7998C89.2998 70.4191 90.4191 69.2998 91.7998 69.2998C93.1805 69.2998 94.2998 70.4191 94.2998 71.7998V103.3C94.2998 104.681 93.1805 105.8 91.7998 105.8C90.4191 105.8 89.2998 104.681 89.2998 103.3Z" fill="white"/>
<path d="M77.2002 103.3V71.7998C77.2002 70.4191 78.3195 69.2998 79.7002 69.2998C81.0809 69.2998 82.2002 70.4191 82.2002 71.7998V103.3C82.2002 104.681 81.0809 105.8 79.7002 105.8C78.3195 105.8 77.2002 104.681 77.2002 103.3Z" fill="white"/>
</svg>
