<svg width="128" height="128" viewBox="0 0 128 128" fill="none" xmlns="http://www.w3.org/2000/svg">
<path d="M60.2998 48.5576C69.5618 48.5576 78.8665 52.0862 85.9404 59.1602C93.0141 66.234 96.543 75.5389 96.543 84.8008C96.5426 89.5185 92.7177 93.3436 88 93.3438C87.4603 93.3438 86.9328 93.291 86.4209 93.1953H64.3955V116C64.3955 119.145 61.8456 121.695 58.7002 121.695C55.5548 121.695 53.0049 119.145 53.0049 116V87.5L53.0127 87.207C53.1652 84.1978 55.6531 81.8047 58.7002 81.8047H79.2236C78.6181 77.9212 76.828 74.21 73.8594 71.2412C70.1333 67.5151 65.2378 65.6436 60.2998 65.6436C60.1319 65.6436 59.9653 65.6365 59.7998 65.627L45.1143 87.2959L40.3994 84.0996V84.1006L45.1143 87.2959C44.0545 88.8592 42.2881 89.7959 40.3994 89.7959H18.5996C15.4544 89.7959 12.9045 87.2458 12.9043 84.1006C12.9043 80.9552 15.4542 78.4053 18.5996 78.4053H37.3799L46.6719 64.6953H14.7002C11.5548 64.6953 9.00488 62.1454 9.00488 59C9.00488 55.8546 11.5548 53.3047 14.7002 53.3047H52.6465C54.0443 50.4915 56.9454 48.5576 60.2998 48.5576ZM81.5 98C87.7408 98 92.7997 103.059 92.7998 109.3C92.7998 115.541 87.7408 120.6 81.5 120.6C75.2593 120.6 70.2002 115.541 70.2002 109.3C70.2003 103.059 75.2593 98.0001 81.5 98ZM59.0996 30.6006L59.7627 30.6045C73.6829 30.7721 87.5521 36.2182 98.167 46.833C104.478 53.1446 108.937 60.4932 111.525 68.4141L119 67.2002L111.899 85.9004L99.2998 70.4004L106.524 69.2266C104.15 62.3393 100.193 55.929 94.6318 50.3682C85.122 40.8584 72.7579 35.9139 60.3047 35.6143L59.0996 35.6006H12.5996C11.2191 35.6006 10.0999 34.4811 10.0996 33.1006C10.0996 31.7199 11.2189 30.6006 12.5996 30.6006H59.0996ZM95.8008 7.39941C110.444 7.39955 115.363 15.3384 115.4 15.3994C115.4 15.3994 110.5 23.4002 95.8008 23.4004H77.9004V7.39941H95.8008ZM69.1006 12.9004C70.4812 12.9005 71.6006 14.0197 71.6006 15.4004C71.6003 16.7808 70.481 17.9003 69.1006 17.9004H12.9004C11.5198 17.9004 10.4007 16.7809 10.4004 15.4004C10.4004 14.0197 11.5197 12.9004 12.9004 12.9004H69.1006Z" fill="white"/>
</svg>
