<svg width="128" height="128" viewBox="0 0 128 128" fill="none" xmlns="http://www.w3.org/2000/svg">
<path d="M90.76 32.1298L74.5 10.6798L101.21 7.31982L90.76 32.1298Z" fill="white"/>
<path d="M58.7671 14.5313C61.2366 14.2513 63.0114 12.0224 62.7314 9.55293C62.4514 7.08348 60.2225 5.3086 57.753 5.58864C43.9992 7.14831 31.2439 13.5345 21.7546 23.6119C20.724 24.7064 19.7392 25.8368 18.8014 27H31.1454C38.7976 20.0805 48.4503 15.7012 58.7671 14.5313Z" fill="white"/>
<path d="M16.9503 78H7.61523C9.52659 85.5907 12.9564 92.779 17.7637 99.1064C26.1376 110.128 38.1485 117.824 51.6612 120.825C65.174 123.826 79.3132 121.938 91.5654 115.497C103.818 109.056 113.389 98.4796 118.578 85.6471C123.767 72.8146 124.238 58.5577 119.907 45.4108C115.576 32.2639 106.723 21.0788 94.9222 13.8436C92.8034 12.5446 90.0328 13.2091 88.7337 15.3279C87.4347 17.4466 88.0992 20.2173 90.2179 21.5163C100.203 27.6384 107.694 37.1027 111.359 48.227C115.024 59.3513 114.625 71.4148 110.235 82.2731C105.844 93.1314 97.7448 102.081 87.3776 107.531C77.0103 112.981 65.0464 114.578 53.6125 112.039C42.1786 109.499 32.0156 102.988 24.93 93.6617C21.3292 88.9223 18.6417 83.612 16.9503 78Z" fill="white"/>
<path d="M49.9444 34.2046C51.3419 31.3909 54.2451 29.457 57.5999 29.457C66.862 29.457 76.1667 32.9852 83.2406 40.0592C90.3145 47.1331 93.8427 56.4378 93.8427 65.6998C93.8427 70.4179 90.018 74.2426 85.2999 74.2426C84.7567 74.2426 84.2253 74.1919 83.7102 74.095H61.6951V96.8998C61.6951 100.045 59.1453 102.595 55.9999 102.595C52.8545 102.595 50.3047 100.045 50.3047 96.8998V68.3998C50.3047 65.2544 52.8545 62.7046 55.9999 62.7046H76.5254C75.9199 58.8208 74.1282 55.1095 71.1593 52.1405C67.4332 48.4144 62.5379 46.5426 57.5999 46.5426C57.432 46.5426 57.2652 46.5378 57.0996 46.5282L42.4142 68.1953C41.3545 69.7588 39.5886 70.6952 37.6998 70.6952H15.8998C12.7544 70.6952 10.2046 68.1453 10.2046 65C10.2046 61.8546 12.7544 59.3048 15.8998 59.3048H34.6798L43.972 45.595H11.9999C8.85452 45.595 6.30469 43.0452 6.30469 39.8998C6.30469 36.7544 8.85452 34.2046 11.9999 34.2046H49.9444Z" fill="white"/>
<path d="M78.8 101.5C85.0408 101.5 90.1 96.4407 90.1 90.1999C90.1 83.9591 85.0408 78.8999 78.8 78.8999C72.5592 78.8999 67.5 83.9591 67.5 90.1999C67.5 96.4407 72.5592 101.5 78.8 101.5Z" fill="white"/>
</svg>
