<svg width="128" height="128" viewBox="0 0 128 128" fill="none" xmlns="http://www.w3.org/2000/svg">
<path d="M124 60H111.82C109.89 36.68 91.31 18.1 68 16.18V4H60V16.18C36.68 18.11 18.1 36.69 16.18 60H4V68H16.18C18.11 91.32 36.69 109.9 60 111.82V124H68V111.82C91.32 109.89 109.9 91.31 111.82 68H124V60ZM64 104C41.91 104 24 86.09 24 64C24 41.91 41.91 24 64 24C86.09 24 104 41.91 104 64C104 86.09 86.09 104 64 104Z" fill="white"/>
<circle cx="78" cy="41" r="8" fill="white"/>
<path d="M94.1569 79.7175C88.4822 90.5832 77.1073 98 64.0001 98C51.1838 98 40.0238 90.9088 34.2295 80.4358L55.4556 53.1875L72.4358 74.9812L81.4457 63.5L94.1569 79.7175Z" fill="white"/>
</svg>
