<svg width="128" height="128" viewBox="0 0 128 128" fill="none" xmlns="http://www.w3.org/2000/svg">
<path d="M59.2998 19.7002C80.8389 19.7002 98.2998 37.1611 98.2998 58.7002C98.2998 68.0822 94.9856 76.6894 89.4658 83.418C92.1708 82.6339 95.2089 83.3035 97.3457 85.4316L122.346 110.331C125.476 113.449 125.486 118.515 122.368 121.646C119.25 124.776 114.185 124.786 111.055 121.668L86.0547 96.7676C83.9104 94.6318 83.2301 91.5826 84.0166 88.8672C77.2882 94.3864 68.6814 97.7002 59.2998 97.7002C37.7607 97.7002 20.2998 80.2393 20.2998 58.7002C20.2998 37.1611 37.7607 19.7002 59.2998 19.7002ZM62.2998 114.3H56.2998V102.3H62.2998V114.3ZM59.2998 31.7002C44.3881 31.7002 32.2998 43.7885 32.2998 58.7002C32.2998 73.6119 44.3881 85.7002 59.2998 85.7002C74.2115 85.7002 86.2998 73.6119 86.2998 58.7002C86.2998 43.7885 74.2115 31.7002 59.2998 31.7002ZM59.2998 50.7002C63.7181 50.7002 67.2998 54.2819 67.2998 58.7002C67.2998 63.1185 63.7181 66.7002 59.2998 66.7002C54.8815 66.7002 51.2998 63.1185 51.2998 58.7002C51.2998 54.2819 54.8815 50.7002 59.2998 50.7002ZM15.7002 61.7002H3.7002V55.7002H15.7002V61.7002ZM114.9 61.7002H102.9V55.7002H114.9V61.7002ZM62.2998 15.1006H56.2998V3.09961H62.2998V15.1006Z" fill="white"/>
</svg>
