<svg width="128" height="128" viewBox="0 0 128 128" fill="none" xmlns="http://www.w3.org/2000/svg">
<path d="M64 76C70.6274 76 76 70.6274 76 64C76 57.3726 70.6274 52 64 52C57.3726 52 52 57.3726 52 64C52 70.6274 57.3726 76 64 76Z" fill="white"/>
<path fill-rule="evenodd" clip-rule="evenodd" d="M64 100C83.8822 100 100 83.8822 100 64C100 44.1177 83.8822 28 64 28C44.1177 28 28 44.1177 28 64C28 83.8822 44.1177 100 64 100ZM64 92C79.464 92 92 79.464 92 64C92 48.536 79.464 36 64 36C48.536 36 36 48.536 36 64C36 79.464 48.536 92 64 92Z" fill="white"/>
<path fill-rule="evenodd" clip-rule="evenodd" d="M64 124C97.1371 124 124 97.1371 124 64C124 30.8629 97.1371 4 64 4C30.8629 4 4 30.8629 4 64C4 97.1371 30.8629 124 64 124ZM64 116C92.7188 116 116 92.7188 116 64C116 35.2812 92.7188 12 64 12C35.2812 12 12 35.2812 12 64C12 92.7188 35.2812 116 64 116Z" fill="white"/>
</svg>
