<svg width="128" height="128" viewBox="0 0 128 128" fill="none" xmlns="http://www.w3.org/2000/svg">
<path d="M58.5548 16.6929C62.008 18.4404 65.0084 20.9657 67.3196 24.07C70.3796 28.075 71.6896 30.0775 72.9996 30.0775C74.3096 30.0775 75.6196 28.075 78.6796 24.07C80.9908 20.9657 83.9912 18.4404 87.4445 16.6929C90.8977 14.9455 94.7095 14.0236 98.5796 14C112.71 14 124.15 26.09 124.15 41.09C124.15 58.458 111.212 71.973 97.3605 86.4418C89.6231 94.5243 81.6008 102.904 75.3896 112.42C74.0196 114.53 71.9796 114.53 70.6096 112.42C69.1866 110.24 67.6685 108.119 66.0805 106.048C66.3727 104.88 66.5433 102.972 65.454 101.19C65.754 100.864 66.0143 100.527 66.2359 100.194C66.9649 99.1009 67.5739 97.6064 67.5739 95.8796V89.4227C67.5739 88.1665 67.2115 86.5422 66.1084 85.189C66.1894 85.0727 66.2656 84.9569 66.3372 84.8423C67.0065 83.7708 67.5739 82.3147 67.5739 80.6432V74.3721C67.5739 73.2931 67.2954 71.7213 66.2825 70.362V69.7224C66.3559 69.6042 66.425 69.4863 66.49 69.3691C67.0966 68.2753 67.6687 66.6511 67.4547 64.768L67.4533 64.7559L67.4519 64.7439C67.1038 60.6944 63.4996 56.5 60.9099 54.8096C58.3201 53.1192 52.5275 53.7745 48.8892 55.8791L37.7552 62.3123L36.4799 60.1034L36.4753 60.0955C34.2344 56.2432 29.4044 54.7482 25.3986 56.668C23.1621 51.7627 21.8496 46.6218 21.8496 41.09C21.8496 26.13 33.2896 14 47.4196 14C51.2897 14.0236 55.1015 14.9455 58.5548 16.6929Z" fill="#00FF99" fill-opacity="0.35"/>
<path d="M114.15 41.0899C114.15 31.0834 106.68 24.0213 98.6164 24C96.4478 24.0168 94.3103 24.5036 92.3507 25.4248L91.9601 25.6152C89.8881 26.6637 88.087 28.1794 86.7003 30.042L86.6261 30.1416C85.3618 31.7964 83.8769 33.8222 82.7179 35.1504C82.0976 35.8612 81.099 36.9381 79.7735 37.8731C78.3619 38.8689 76.0475 40.0771 73.0001 40.0772C69.9525 40.0772 67.6374 38.8689 66.2257 37.8731C64.9003 36.9381 63.9016 35.8611 63.2813 35.1504C62.1223 33.8222 60.6374 31.7964 59.3731 30.1416L59.2989 30.042L59.0343 29.6963C57.7761 28.1049 56.2077 26.7854 54.4249 25.8174L54.0401 25.6152C51.9751 24.5703 49.696 24.0177 47.3819 24C39.3277 24.0221 31.8497 31.114 31.8496 41.0899C31.8496 42.7921 32.0236 44.4652 32.3662 46.1289C35.1317 46.6304 37.7679 47.7564 40.0557 49.4336L43.8819 47.2227L44.4971 46.8799C47.6043 45.2142 51.1302 44.2775 54.3292 43.9678C57.239 43.6861 61.9203 43.7232 65.9845 46.1895L66.3761 46.4356L66.838 46.7471C69.1451 48.3472 71.3776 50.5981 73.1446 53.0586C74.9556 55.5804 76.9528 59.2634 77.3907 63.6387L77.4337 64.0616C77.6246 66.2084 77.3919 68.1637 76.9601 69.8643C77.4243 71.5591 77.5743 73.1259 77.5743 74.3721V80.6436C77.5743 82.2342 77.3543 83.715 77.0021 85.0674C77.4168 86.6361 77.5743 88.1307 77.5743 89.4229V93.1231C81.7699 88.2596 86.1019 83.7413 90.1368 79.5264L92.7394 76.8028C98.6939 70.5488 103.811 64.9621 107.66 59.2588C111.947 52.9072 114.15 47.1223 114.15 41.0899ZM66.4893 69.3692L67.127 69.7227H67.128L66.4903 69.3692C67.0969 68.2754 67.6692 66.6507 67.4552 64.7676L67.4532 64.7559L67.4522 64.7442L67.4532 64.7432H67.4513C67.1028 60.694 63.4998 56.5 60.9102 54.8096C58.3206 53.1193 52.5281 53.7745 48.8897 55.8789L37.7549 62.3125L36.4795 60.1035L36.4756 60.0957C34.2347 56.2434 29.4043 54.7482 25.3984 56.668L24.9902 55.7451C23.0696 51.2725 21.9275 46.5985 21.8535 41.6074L21.8496 41.0899C21.8497 26.1299 33.29 14 47.42 14C51.29 14.0237 55.1016 14.946 58.5548 16.6934C62.008 18.4408 65.0082 20.966 67.3194 24.0703C70.2839 27.9503 71.6063 29.9502 72.8771 30.0713L73.0001 30.0772C74.31 30.0768 75.6202 28.0748 78.6798 24.0703C80.991 20.9661 83.9913 18.4408 87.4445 16.6934C90.8977 14.9459 94.7101 14.0236 98.5802 14C112.71 14.0003 124.15 26.0901 124.15 41.0899L124.141 41.9014C123.746 58.8806 110.995 72.1988 97.3605 86.4415C89.6231 94.5239 81.6009 102.904 75.3898 112.42C74.0197 114.53 71.9795 114.53 70.6095 112.42C69.1865 110.24 67.6681 108.12 66.0802 106.049C66.3723 104.881 66.5432 102.972 65.4542 101.19C65.7542 100.864 66.0148 100.527 66.2364 100.194C66.9199 99.1691 67.497 97.7914 67.5665 96.2003L67.5743 95.8799V89.4229C67.5743 88.1668 67.2114 86.5426 66.1085 85.1895C66.1893 85.0734 66.2655 84.9573 66.337 84.8428C66.9645 83.8382 67.5027 82.4953 67.5675 80.9541L67.5743 80.6436V74.3721C67.5743 73.2931 67.2952 71.7217 66.2823 70.3623V69.7227H66.2833L66.2823 69.7217C66.3555 69.6038 66.4245 69.4861 66.4893 69.3692Z" fill="#00FF99"/>
<path d="M60.7087 67.6275C61.424 67.2187 62.0093 66.2153 61.9164 65.3978C61.2661 59.8885 56.9274 57.6681 51.6783 60.7061L40.2139 67.3302L45.4723 76.4348L60.7087 67.6368V67.6275Z" fill="#FF9900"/>
<path d="M37.5475 110.327C36.9993 108.998 37.6311 107.474 38.9596 106.917L60.625 97.9424C61.3868 97.6265 62 96.7068 62 95.8799V89.4231C62 88.5962 61.3961 88.2246 60.6622 88.5776L41.0964 98.0167C39.8608 98.6113 38.3836 98.1468 37.7054 96.9762C37.6775 96.9205 37.6404 96.8647 37.6125 96.7997C36.99 95.499 37.5289 93.9475 38.8296 93.3158L60.6622 82.7804C61.4054 82.4273 62 81.4704 62 80.6436V74.3725C62 73.5456 61.424 73.2205 60.7086 73.6292L45.816 82.2229L36.6927 87.4906C35.9031 87.9459 34.9368 87.9552 34.1379 87.5185L31.3321 85.9856V100.042C31.3321 101.482 30.1615 102.653 28.7215 102.653C27.7553 102.653 26.9099 102.123 26.4639 101.352C26.241 100.971 26.1202 100.525 26.1202 100.051V83.152L20.8153 80.2626C20.3787 80.0211 20.0349 79.6773 19.8027 79.2779C19.366 78.516 19.3196 77.5498 19.7748 76.723C20.4623 75.4595 22.051 74.995 23.3145 75.6824L34.0543 81.5354C34.7789 81.9256 35.9402 81.9164 36.6556 81.5076L39.675 79.7703C40.3904 79.3615 40.6319 78.451 40.2231 77.7356L31.6573 62.8987C30.8305 61.4773 29.0095 60.9849 27.5881 61.8118L13.5966 69.8852C12.1752 70.712 11.0139 72.7095 11.0139 74.3539V88.2896C11.0139 89.1165 10.4379 90.1106 9.7225 90.5286L3.48859 94.124C2.06715 94.9509 1.57476 96.7718 2.40161 98.1933L17.4708 124.299C18.2976 125.721 20.2486 126.538 21.8373 126.111L44.7383 119.97C51.892 118.056 58.0144 111.915 60.6436 104.799C60.9316 104.028 60.4949 103.637 59.7331 103.953L40.9571 111.729C39.7307 112.24 38.3465 111.739 37.7054 110.624C37.6497 110.522 37.5939 110.42 37.5568 110.317L37.5475 110.327Z" fill="#FF9900"/>
</svg>
