<svg width="128" height="128" viewBox="0 0 128 128" fill="none" xmlns="http://www.w3.org/2000/svg">
<path d="M58.5548 16.6929C62.008 18.4404 65.0084 20.9657 67.3196 24.07C70.3796 28.075 71.6896 30.0775 72.9996 30.0775C74.3096 30.0775 75.6196 28.075 78.6796 24.07C80.9908 20.9657 83.9912 18.4404 87.4445 16.6929C90.8977 14.9455 94.7095 14.0236 98.5796 14C112.71 14 124.15 26.09 124.15 41.09C124.15 58.458 111.212 71.973 97.3605 86.4418C89.6231 94.5243 81.6008 102.904 75.3896 112.42C74.0196 114.53 71.9796 114.53 70.6096 112.42C68.6584 109.431 66.5284 106.553 64.2847 103.762L64.191 103.028L77.973 88.1973C81.9334 83.9345 79.8227 76.7387 73.8648 75.6033L54.2242 71.8614L44.6396 53.9818C41.794 48.6741 34.2057 48.6725 31.3595 53.9824L27.6165 60.9647C24.0538 54.7709 21.8496 48.2586 21.8496 41.09C21.8496 26.13 33.2896 14 47.4196 14C51.2897 14.0236 55.1015 14.9455 58.5548 16.6929Z" fill="#00FF99" fill-opacity="0.35"/>
<path d="M114.15 41.0899C114.15 31.0834 106.68 24.0213 98.6164 24C96.4478 24.0168 94.3103 24.5036 92.3507 25.4248L91.9601 25.6152C89.8881 26.6637 88.087 28.1794 86.7003 30.042L86.6261 30.1416C85.3618 31.7964 83.8769 33.8222 82.7179 35.1504C82.0976 35.8612 81.099 36.9381 79.7735 37.8731C78.3619 38.8689 76.0475 40.0771 73.0001 40.0772C69.9525 40.0772 67.6374 38.8689 66.2257 37.8731C64.9003 36.9381 63.9016 35.8611 63.2813 35.1504C62.1223 33.8222 60.6374 31.7964 59.3731 30.1416L59.2989 30.042L59.0343 29.6963C57.7761 28.1049 56.2077 26.7854 54.4249 25.8174L54.0401 25.6152C51.9751 24.5703 49.696 24.0177 47.3819 24C39.3277 24.0221 31.8497 31.114 31.8496 41.0899V41.0928C39.3915 38.3088 48.5702 40.8428 53.1348 48.6875L53.4532 49.2569L60.7833 62.9307L75.7364 65.7803L73.8644 75.6026L54.2247 71.8614L44.6397 53.9815C41.7939 48.674 34.2056 48.6727 31.3594 53.9825L27.6162 60.9649C24.1648 54.9645 21.989 48.6651 21.8564 41.7598L21.8496 41.0899C21.8497 26.1299 33.29 14 47.42 14C51.29 14.0237 55.1016 14.946 58.5548 16.6934C62.008 18.4408 65.0082 20.966 67.3194 24.0703C70.2839 27.9503 71.6063 29.9502 72.8771 30.0713L73.0001 30.0772C74.31 30.0768 75.6202 28.0748 78.6798 24.0703C80.991 20.9661 83.9913 18.4408 87.4445 16.6934C90.8977 14.9459 94.7101 14.0236 98.5802 14C112.71 14.0003 124.15 26.0901 124.15 41.0899L124.141 41.9014C123.746 58.8806 110.995 72.1988 97.3605 86.4415C89.6231 94.5239 81.6009 102.904 75.3898 112.42C74.0197 114.53 71.9795 114.53 70.6095 112.42C68.6584 109.431 66.5288 106.554 64.2852 103.763L64.1915 103.027L77.9728 88.1973C81.9331 83.9347 79.8229 76.7393 73.8653 75.6036L73.8644 75.6026L75.7364 65.7803C83.6385 67.2862 88.5547 73.2769 89.714 79.9678C89.8552 79.8203 89.9963 79.6732 90.1368 79.5264L92.7394 76.8028C98.6939 70.5488 103.811 64.9621 107.66 59.2588C111.947 52.9072 114.15 47.1223 114.15 41.0899Z" fill="#00FF99"/>
<path fill-rule="evenodd" clip-rule="evenodd" d="M39.3519 56.8165C38.7682 55.7278 37.2317 55.7278 36.6482 56.8165L26.0609 76.5666C25.8393 76.9797 25.4472 77.2698 24.9925 77.3563L3.25781 81.4972C2.05976 81.7255 1.58495 83.212 2.42232 84.1133L17.6136 100.46C17.9314 100.802 18.0813 101.271 18.0217 101.738L15.1763 124.047C15.0194 125.277 16.2625 126.196 17.3637 125.664L37.3397 116.017C37.7575 115.815 38.2425 115.815 38.6604 116.017L58.6365 125.664C59.7376 126.196 60.9807 125.277 60.8237 124.047L57.9783 101.738C57.9188 101.271 58.0687 100.802 58.3865 100.46L73.5777 84.1133C74.415 83.212 73.9402 81.7255 72.7422 81.4972L51.0077 77.3563C50.553 77.2698 50.1606 76.9797 49.9392 76.5666L39.3519 56.8165ZM36.5546 68.0012C37.0489 66.633 38.951 66.633 39.4453 68.0012L44.0281 80.6858C44.0157 80.8052 44.0257 80.9298 44.0616 81.0546L48.0305 94.8656C48.2262 95.5464 49.056 95.7825 49.5704 95.3038L53.5042 91.6439C53.7466 91.4183 53.8561 91.0803 53.7927 90.7522L52.5302 84.206H62.6323C64.084 84.206 64.7294 86.0624 63.6004 86.9907L52.5525 96.0774C52.4012 96.1007 52.2524 96.1625 52.1197 96.2666L40.9227 105.058C40.3708 105.491 40.4569 106.364 41.0826 106.677L45.8656 109.071C46.1607 109.218 46.5098 109.199 46.7872 109.019L51.8803 105.723L54.627 115.535C55.0244 116.954 53.4487 118.094 52.2615 117.246L38.887 107.696C38.7065 107.567 38.5056 107.482 38.2981 107.44L29.0564 101.069C28.4711 100.665 27.674 101.037 27.5922 101.751L26.9801 107.098C26.9421 107.43 27.0769 107.758 27.3361 107.964L31.8021 111.512L23.8172 117.244C22.6331 118.094 21.0556 116.961 21.4467 115.541L25.4835 100.891C25.5075 100.847 25.5268 100.8 25.5402 100.749L29.087 87.3233C29.202 86.8884 28.8419 86.4758 28.4037 86.5405L22.5153 87.4105C22.2854 87.4446 22.0939 87.6072 22.0199 87.8312L20.1482 93.4974L12.4897 87.3682C11.3533 86.4587 11.9642 84.6013 13.4098 84.5707L28.7607 84.2469C28.8066 84.2527 28.8535 84.255 28.901 84.2538L41.2119 83.929C41.8817 83.9112 42.3198 83.2079 42.0494 82.5841L39.8176 77.4334C39.6669 77.0857 39.3289 76.8615 38.9555 76.8615H33.3536L36.5546 68.0012Z" fill="#CE90FF"/>
</svg>
