<svg width="128" height="128" viewBox="0 0 128 128" fill="none" xmlns="http://www.w3.org/2000/svg">
<path fill-rule="evenodd" clip-rule="evenodd" d="M66.2532 6.37122C65.2804 4.54292 62.7195 4.54293 61.7471 6.37122L44.1015 39.5393C43.7322 40.233 43.0786 40.7202 42.3208 40.8656L6.09636 47.8197C4.0996 48.2031 3.30824 50.6996 4.70387 52.2131L30.0227 79.6659C30.5523 80.2401 30.8021 81.0281 30.7029 81.8119L25.9605 119.278C25.6991 121.343 27.7709 122.886 29.6061 121.993L62.8996 105.792C63.5958 105.453 64.4041 105.453 65.1007 105.792L98.3941 121.993C100.229 122.886 102.301 121.343 102.039 119.278L97.2971 81.8119C97.198 81.0281 97.4478 80.2401 97.9775 79.6659L123.296 52.2131C124.692 50.6996 123.9 48.2031 121.904 47.8197L85.6794 40.8656C84.9216 40.7202 84.2676 40.233 83.8987 39.5393L66.2532 6.37122ZM61.591 25.1546C62.4149 22.8569 65.585 22.8569 66.4088 25.1546L74.0468 46.4571C74.0262 46.6577 74.0427 46.8669 74.1027 47.0765L80.7174 70.2705C81.0437 71.4137 82.4267 71.8103 83.2841 71.0064L89.8403 64.8601C90.2444 64.4812 90.4268 63.9135 90.3212 63.3625L88.2169 52.3689H105.054C107.473 52.3689 108.549 55.4865 106.667 57.0454L88.2542 72.3055C88.002 72.3447 87.7539 72.4484 87.5329 72.6233L68.8712 87.3875C67.9513 88.1151 68.0948 89.5801 69.1376 90.1057L77.1093 94.1261C77.6011 94.3739 78.1829 94.3413 78.6453 94.0398L87.1338 88.5041L91.7117 104.982C92.3741 107.366 89.7479 109.28 87.7692 107.856L65.4784 91.817C65.1775 91.6009 64.8427 91.4579 64.4968 91.3885L49.094 80.6881C48.1185 80.0104 46.79 80.6347 46.6536 81.8342L45.6334 90.8129C45.5701 91.3705 45.7949 91.9218 46.2268 92.2674L53.6701 98.2257L40.3621 107.852C38.3884 109.28 35.7592 107.376 36.4112 104.992L43.1392 80.3897C43.1792 80.3161 43.2113 80.236 43.2337 80.1503L49.1451 57.6041C49.3367 56.8737 48.7365 56.1808 48.0061 56.2894L38.1921 57.7505C37.809 57.8078 37.4899 58.0808 37.3666 58.4569L34.247 67.9728L21.4828 57.6794C19.5888 56.152 20.607 53.0327 23.0163 52.9813L48.6012 52.4376C48.6776 52.4473 48.7558 52.4511 48.835 52.4491L69.3532 51.9036C70.4695 51.8738 71.1996 50.6927 70.7491 49.6451L67.0293 40.995C66.7781 40.411 66.2149 40.0346 65.5925 40.0346H56.256L61.591 25.1546Z" fill="white"/>
</svg>
