<svg width="128" height="128" viewBox="0 0 128 128" fill="none" xmlns="http://www.w3.org/2000/svg">
<path d="M62 31V10C62 8.89543 62.8954 8 64 8C65.1046 8 66 8.89543 66 10V31C66 32.1046 65.1046 33 64 33C62.8954 33 62 32.1046 62 31Z" fill="white"/>
<path d="M86.5762 20.9863C87.1362 20.0343 88.3615 19.7164 89.3135 20.2763C90.2655 20.8363 90.5834 22.0616 90.0235 23.0136L86.0235 29.8144C85.4633 30.7661 84.2381 31.0833 83.2862 30.5234C82.3341 29.9634 82.0162 28.7382 82.5762 27.7861L86.5762 20.9863Z" fill="white"/>
<path d="M109.802 35.2665C110.759 34.7156 111.983 35.0446 112.534 36.0019C113.085 36.9592 112.755 38.1823 111.797 38.7333L97.8978 46.7333C96.9406 47.2842 95.7174 46.9551 95.1664 45.998C94.6154 45.0407 94.9446 43.8176 95.9017 43.2665L109.802 35.2665Z" fill="white"/>
<path d="M117.199 62C118.304 62 119.199 62.8954 119.199 64C119.199 65.1046 118.304 66 117.199 66H108.6C107.495 66 106.6 65.1046 106.6 64C106.6 62.8954 107.495 62 108.6 62H117.199Z" fill="white"/>
<path d="M95.1664 82.0018C95.7174 81.0447 96.9406 80.7155 97.8978 81.2665L111.797 89.2665C112.755 89.8175 113.085 91.0406 112.534 91.9979C111.983 92.9551 110.759 93.2842 109.802 92.7333L95.9017 84.7333C94.9446 84.1822 94.6154 82.9591 95.1664 82.0018Z" fill="white"/>
<path d="M83.2861 97.4765C84.2381 96.9166 85.4634 97.2345 86.0234 98.1865L90.0234 104.986C90.5834 105.938 90.2655 107.164 89.3135 107.724C88.3615 108.283 87.1363 107.966 86.5761 107.015L82.5761 100.214C82.0162 99.2618 82.3341 98.0365 83.2861 97.4765Z" fill="white"/>
<path d="M62 118V97C62 95.8954 62.8954 95 64 95C65.1046 95 66 95.8954 66 97V118C66 119.105 65.1046 120 64 120C62.8954 120 62 119.105 62 118Z" fill="white"/>
<path d="M41.9766 98.1865C42.5366 97.2345 43.7619 96.9166 44.7139 97.4765C45.6659 98.0365 45.9838 99.2618 45.4239 100.214L41.4239 107.015C40.8637 107.966 39.6385 108.283 38.6866 107.724C37.7345 107.164 37.4166 105.938 37.9766 104.986L41.9766 98.1865Z" fill="white"/>
<path d="M30.1019 81.2665C31.0592 80.7156 32.2823 81.0446 32.8334 82.0019C33.3843 82.9592 33.0544 84.1823 32.097 84.7333L18.1976 92.7333C17.2404 93.2842 16.0172 92.9551 15.4662 91.998C14.9152 91.0407 15.2444 89.8176 16.2015 89.2665L30.1019 81.2665Z" fill="white"/>
<path d="M19.3994 62C20.504 62 21.3994 62.8954 21.3994 64C21.3994 65.1046 20.504 66 19.3994 66H10.7998C9.69524 66 8.7998 65.1046 8.7998 64C8.7998 62.8954 9.69524 62 10.7998 62H19.3994Z" fill="white"/>
<path d="M15.4662 36.0018C16.0172 35.0447 17.2404 34.7155 18.1976 35.2665L32.097 43.2665C33.0544 43.8175 33.3843 45.0406 32.8334 45.9979C32.2823 46.9551 31.0592 47.2842 30.1019 46.7333L16.2015 38.7333C15.2444 38.1822 14.9152 36.9591 15.4662 36.0018Z" fill="white"/>
<path d="M38.6865 20.2763C39.6385 19.7164 40.8638 20.0343 41.4238 20.9863L45.4238 27.7861C45.9838 28.7382 45.6659 29.9634 44.7138 30.5234C43.7619 31.0833 42.5367 30.7661 41.9765 29.8144L37.9765 23.0136C37.4166 22.0616 37.7345 20.8363 38.6865 20.2763Z" fill="white"/>
<path fill-rule="evenodd" clip-rule="evenodd" d="M28 63.9998C28 63.9998 38.7 39.2998 64 39.2998C89.3 39.2998 100 63.9998 100 63.9998C100 63.9998 89.3 88.7998 64 88.7998C38.7 88.7998 28 63.9998 28 63.9998ZM64 80C72.8366 80 80 72.8366 80 64C80 55.1634 72.8366 48 64 48C55.1634 48 48 55.1634 48 64C48 72.8366 55.1634 80 64 80Z" fill="white"/>
</svg>
