<svg width="128" height="128" viewBox="0 0 128 128" fill="none" xmlns="http://www.w3.org/2000/svg">
<path d="M0 14.4122C0 17.664 2.66051 20.3245 5.91224 20.3245H122.088C125.339 20.3245 128 17.664 128 14.4122C128 11.1605 125.339 8.5 122.088 8.5H5.91224C2.66051 8.5 0 11.1605 0 14.4122Z" fill="white"/>
<path d="M111.061 107.752L70.71 37.8543C68.6998 34.3661 66.2464 32.356 63.9997 32.356C61.7531 32.356 59.3142 34.3513 57.2893 37.8543L16.9383 107.752C14.9282 111.24 14.4107 114.359 15.5341 116.31C16.6574 118.261 19.6135 119.369 23.6486 119.369H104.351C108.386 119.369 111.342 118.261 112.465 116.31C113.589 114.359 113.071 111.255 111.061 107.752ZM45.8787 89.616C41.7253 89.616 38.3554 86.2461 38.3554 82.0927C38.3554 77.9394 41.7253 74.5694 45.8787 74.5694C50.032 74.5694 53.402 77.9394 53.402 82.0927C53.402 86.2461 50.032 89.616 45.8787 89.616ZM92.0089 106.762H68.4487C62.3739 106.762 57.511 104.352 55.087 100.155C52.6629 95.9569 53.0177 90.5324 56.0477 85.2853L67.8278 64.8733C68.7442 63.2918 70.4588 62.3015 72.2916 62.3015C73.1932 62.3015 74.0801 62.5379 74.8634 62.9961C76.0459 63.676 76.9031 64.7994 77.2579 66.1149C77.6126 67.4452 77.4353 68.8345 76.7406 70.0169L64.9605 90.4289C63.852 92.3504 63.4824 94.1093 63.9997 95.011C64.517 95.9126 66.2168 96.4594 68.4487 96.4594H92.0089C94.8468 96.4594 97.1525 98.7652 97.1525 101.603C97.1525 104.441 94.8468 106.747 92.0089 106.747V106.762Z" fill="white"/>
</svg>
